<?xml version="1.0" encoding="utf-8"?>
<!-- Generator: Adobe Illustrator 24.0.2, SVG Export Plug-In . SVG Version: 6.00 Build 0)  -->
<svg version="1.1" id="Capa_1" xmlns="http://www.w3.org/2000/svg" xmlns:xlink="http://www.w3.org/1999/xlink" x="0px" y="0px"
	 viewBox="0 0 48 48" style="enable-background:new 0 0 48 48;" xml:space="preserve">
<style type="text/css">
	.st0{fill:#FAFAFB;stroke:#ADADAD;stroke-width:0.5;stroke-miterlimit:10;}
	.st1{fill:#C4C4C4;}
	.st2{fill:#ADADAD;}
	.st3{fill:#0078D7;}
</style>
<polygon class="st0" points="30.4,2.3 8.9,2.3 8.9,44.2 40.8,44.2 40.8,12.8 "/>
<g>
	<polygon class="st1" points="30.7,12.5 30.7,2.9 40.2,12.6 	"/>
	<path class="st2" d="M30.9,3.5l8.7,8.9l-8.7-0.1L30.9,3.5 M30.4,2.3l0,10.5l10.4,0.1L30.4,2.3L30.4,2.3z"/>
</g>
<image style="overflow:visible;" width="61" height="66" xlink:href="B5622968.jpg"  transform="matrix(1 0 0 1 58.4098 -7.4754)">
</image>
<path class="st3" d="M32.3,34.2H16.8c-1.1,0-2-0.9-2-2V21.7h19.4v10.6C34.3,33.3,33.4,34.2,32.3,34.2z"/>
<g>
	<polygon class="st3" points="24.4,18.8 21.2,15.4 17.8,16.1 20.8,19.4 	"/>
	<polygon class="st3" points="31.6,17.5 33.9,17.1 33.1,13.3 28.7,14.1 	"/>
	<path class="st3" d="M16,16.4l-1.5,0.3v2.2c0,0.9,0.9,1.6,1.8,1.4l2.4-0.4L16,16.4z"/>
	<polygon class="st3" points="26.8,14.4 23,15.1 26.2,18.5 29.8,17.8 	"/>
</g>
</svg>
