<?xml version="1.0" encoding="utf-8"?>
<!-- Generator: Adobe Illustrator 24.0.2, SVG Export Plug-In . SVG Version: 6.00 Build 0)  -->
<svg version="1.1" id="Capa_1" xmlns="http://www.w3.org/2000/svg" xmlns:xlink="http://www.w3.org/1999/xlink" x="0px" y="0px"
	 viewBox="0 0 48 48" style="enable-background:new 0 0 48 48;" xml:space="preserve">
<style type="text/css">
	.st0{fill:url(#SVGID_1_);}
	.st1{fill:url(#SVGID_2_);}
	.st2{fill:url(#SVGID_3_);}
	.st3{opacity:5.000000e-02;enable-background:new    ;}
	.st4{opacity:7.000000e-02;enable-background:new    ;}
	.st5{fill:url(#SVGID_4_);}
	.st6{fill:url(#SVGID_5_);}
	.st7{fill:url(#SVGID_6_);}
	.st8{fill:url(#SVGID_7_);}
	.st9{fill:url(#SVGID_8_);}
	.st10{fill:url(#SVGID_9_);}
</style>
<linearGradient id="SVGID_1_" gradientUnits="userSpaceOnUse" x1="24" y1="32" x2="24" y2="20" gradientTransform="matrix(1 0 0 -1 0 50)">
	<stop  offset="0.233" style="stop-color:#41A5EE"/>
	<stop  offset="0.317" style="stop-color:#3994DE"/>
	<stop  offset="0.562" style="stop-color:#2366B4"/>
	<stop  offset="0.751" style="stop-color:#154A9B"/>
	<stop  offset="0.86" style="stop-color:#103F91"/>
</linearGradient>
<rect x="6" y="18" class="st0" width="36" height="12"/>
<linearGradient id="SVGID_2_" gradientUnits="userSpaceOnUse" x1="24" y1="44" x2="24" y2="32" gradientTransform="matrix(1 0 0 -1 0 50)">
	<stop  offset="0.233" style="stop-color:#E8457C"/>
	<stop  offset="0.272" style="stop-color:#E14177"/>
	<stop  offset="0.537" style="stop-color:#B32C59"/>
	<stop  offset="0.742" style="stop-color:#971E46"/>
	<stop  offset="0.86" style="stop-color:#8C193F"/>
</linearGradient>
<path class="st1" d="M42,18H6V8c0-1.1,0.9-2,2-2h32c1.1,0,2,0.9,2,2V18z"/>
<linearGradient id="SVGID_3_" gradientUnits="userSpaceOnUse" x1="24" y1="20" x2="24" y2="8" gradientTransform="matrix(1 0 0 -1 0 50)">
	<stop  offset="0.233" style="stop-color:#33C481"/>
	<stop  offset="0.325" style="stop-color:#2EB173"/>
	<stop  offset="0.566" style="stop-color:#228353"/>
	<stop  offset="0.752" style="stop-color:#1B673F"/>
	<stop  offset="0.86" style="stop-color:#185C37"/>
</linearGradient>
<path class="st2" d="M40,42H8c-1.1,0-2-0.9-2-2V30h36v10C42,41.1,41.1,42,40,42z"/>
<rect x="17" y="6" class="st3" width="14" height="36"/>
<rect x="17.5" y="6" class="st4" width="13" height="36"/>
<linearGradient id="SVGID_4_" gradientUnits="userSpaceOnUse" x1="24" y1="44" x2="24" y2="8" gradientTransform="matrix(1 0 0 -1 0 50)">
	<stop  offset="3.900000e-02" style="stop-color:#F8C819"/>
	<stop  offset="0.282" style="stop-color:#AF4316"/>
</linearGradient>
<rect x="18" y="6" class="st5" width="12" height="36"/>
<linearGradient id="SVGID_5_" gradientUnits="userSpaceOnUse" x1="24" y1="38" x2="24" y2="8" gradientTransform="matrix(1 0 0 -1 0 50)">
	<stop  offset="0" style="stop-color:#EAAD29"/>
	<stop  offset="0.245" style="stop-color:#D98E24"/>
	<stop  offset="0.632" style="stop-color:#C0631C"/>
	<stop  offset="0.828" style="stop-color:#B75219"/>
	<stop  offset="0.871" style="stop-color:#A94917"/>
	<stop  offset="0.949" style="stop-color:#943B13"/>
	<stop  offset="1" style="stop-color:#8C3612"/>
</linearGradient>
<path class="st6" d="M24,12c-3.3,0-6,2.7-6,6v24h12V18C30,14.7,27.3,12,24,12z"/>
<path class="st3" d="M20,32c-0.7,0-1.4-0.2-2-0.5v1.1c0.6,0.3,1.3,0.4,2,0.4h8c0.7,0,1.4-0.2,2-0.4v-1.1c-0.6,0.3-1.3,0.5-2,0.5H20z
	 M29,22v6c0,0.5-0.5,1-1,1h-2v-2c0-1.1-0.9-2-2-2s-2,0.9-2,2v2h-2c-0.5,0-1-0.5-1-1v-6c0-0.5-0.5-1-1-1v7c0,1.1,0.9,2,2,2h3v-3
	c0-0.5,0.5-1,1-1s1,0.5,1,1v3h3c1.1,0,2-0.9,2-2v-7C29.5,21,29,21.5,29,22z"/>
<path class="st4" d="M29.5,22v6c0,0.8-0.7,1.5-1.5,1.5h-2.5V27c0-0.8-0.7-1.5-1.5-1.5s-1.5,0.7-1.5,1.5v2.5H20
	c-0.8,0-1.5-0.7-1.5-1.5v-6c0-0.3-0.2-0.5-0.5-0.5V28c0,1.1,0.9,2,2,2h3v-3c0-0.5,0.5-1,1-1s1,0.5,1,1v3h3c1.1,0,2-0.9,2-2v-6.5
	C29.7,21.5,29.5,21.7,29.5,22z M20,32c-0.7,0-1.4-0.2-2-0.5V32c0.6,0.3,1.3,0.5,2,0.5h8c0.7,0,1.4-0.2,2-0.5v-0.6
	c-0.6,0.3-1.3,0.5-2,0.5H20z"/>
<linearGradient id="SVGID_6_" gradientUnits="userSpaceOnUse" x1="24" y1="29" x2="24" y2="18" gradientTransform="matrix(1 0 0 -1 0 50)">
	<stop  offset="0.613" style="stop-color:#E6E6E6"/>
	<stop  offset="0.785" style="stop-color:#E4E4E4"/>
	<stop  offset="0.857" style="stop-color:#DDDDDD"/>
	<stop  offset="0.91" style="stop-color:#D1D1D1"/>
	<stop  offset="0.953" style="stop-color:#BFBFBF"/>
	<stop  offset="0.967" style="stop-color:#B8B8B8"/>
</linearGradient>
<path class="st7" d="M32,23v5c0,2.2-1.8,4-4,4h-8c-2.2,0-4-1.8-4-4v-5c0-1.1,0.9-2,2-2l0,0v7c0,1.1,0.9,2,2,2h3v-3c0-0.6,0.4-1,1-1
	l0,0c0.6,0,1,0.4,1,1v3h3c1.1,0,2-0.9,2-2v-7C31.1,21,32,21.9,32,23z"/>
<linearGradient id="SVGID_7_" gradientUnits="userSpaceOnUse" x1="9.4393" y1="7.3358" x2="9.4393" y2="16.8648">
	<stop  offset="0" style="stop-color:#EAAD29"/>
	<stop  offset="0.245" style="stop-color:#D98E24"/>
	<stop  offset="0.632" style="stop-color:#C0631C"/>
	<stop  offset="0.828" style="stop-color:#B75219"/>
	<stop  offset="0.871" style="stop-color:#A94917"/>
	<stop  offset="0.949" style="stop-color:#943B13"/>
	<stop  offset="1" style="stop-color:#8C3612"/>
</linearGradient>
<path class="st8" d="M9.5,7.3C9.5,7.3,9.5,7.3,9.5,7.3l-1.2,0C8.1,8.5,8,10.2,8,12.1c0,1.9,0.1,3.6,0.3,4.8h2.6
	c-0.2-1.1-0.3-2.8-0.3-4.8c0-1.9,0.1-3.6,0.3-4.8H9.5z"/>
<linearGradient id="SVGID_8_" gradientUnits="userSpaceOnUse" x1="9.4393" y1="19.1391" x2="9.4393" y2="28.6681">
	<stop  offset="0" style="stop-color:#EAAD29"/>
	<stop  offset="0.245" style="stop-color:#D98E24"/>
	<stop  offset="0.632" style="stop-color:#C0631C"/>
	<stop  offset="0.828" style="stop-color:#B75219"/>
	<stop  offset="0.871" style="stop-color:#A94917"/>
	<stop  offset="0.949" style="stop-color:#943B13"/>
	<stop  offset="1" style="stop-color:#8C3612"/>
</linearGradient>
<path class="st9" d="M9.5,19.1C9.5,19.1,9.5,19.1,9.5,19.1l-1.2,0C8.1,20.3,8,22,8,23.9c0,1.9,0.1,3.6,0.3,4.8h2.6
	c-0.2-1.1-0.3-2.8-0.3-4.8c0-1.9,0.1-3.6,0.3-4.8H9.5z"/>
<linearGradient id="SVGID_9_" gradientUnits="userSpaceOnUse" x1="9.4393" y1="31.385" x2="9.4393" y2="40.914">
	<stop  offset="0" style="stop-color:#EAAD29"/>
	<stop  offset="0.245" style="stop-color:#D98E24"/>
	<stop  offset="0.632" style="stop-color:#C0631C"/>
	<stop  offset="0.828" style="stop-color:#B75219"/>
	<stop  offset="0.871" style="stop-color:#A94917"/>
	<stop  offset="0.949" style="stop-color:#943B13"/>
	<stop  offset="1" style="stop-color:#8C3612"/>
</linearGradient>
<path class="st10" d="M9.5,31.4C9.5,31.4,9.5,31.4,9.5,31.4l-1.2,0C8.1,32.5,8,34.2,8,36.2c0,1.9,0.1,3.6,0.3,4.8h2.6
	c-0.2-1.1-0.3-2.8-0.3-4.8c0-1.9,0.1-3.6,0.3-4.8H9.5z"/>
</svg>
