<?xml version="1.0" encoding="utf-8"?>
<!-- Generator: Adobe Illustrator 24.0.2, SVG Export Plug-In . SVG Version: 6.00 Build 0)  -->
<svg version="1.1" id="Capa_1" xmlns="http://www.w3.org/2000/svg" xmlns:xlink="http://www.w3.org/1999/xlink" x="0px" y="0px"
	 viewBox="0 0 128 128" style="enable-background:new 0 0 128 128;" xml:space="preserve">
<style type="text/css">
	.st0{fill:#BDBDC0;}
</style>
<path class="st0" d="M63.9,77.4l39.2-39.2c1.3-1.3,2.9-2,4.7-1.9s3.4,0.7,4.7,2.1c1.3,1.3,2,2.9,2,4.7s-0.7,3.4-2,4.7L71.4,88.7
	c-1.1,1.1-2.3,1.9-3.6,2.4c-1.3,0.5-2.7,0.8-4,0.8c-1.3,0-2.7-0.3-4-0.8s-2.5-1.3-3.6-2.4L15.1,47.6c-1.3-1.3-2-2.9-1.9-4.7
	s0.7-3.3,2.1-4.7c1.3-1.3,2.9-2,4.7-2c1.8,0,3.4,0.7,4.7,2L63.9,77.4z"/>
</svg>
