<?xml version="1.0" encoding="utf-8"?>
<!-- Generator: Adobe Illustrator 24.0.2, SVG Export Plug-In . SVG Version: 6.00 Build 0)  -->
<svg version="1.1" id="Capa_1" xmlns="http://www.w3.org/2000/svg" xmlns:xlink="http://www.w3.org/1999/xlink" x="0px" y="0px"
	 viewBox="0 0 48 48" style="enable-background:new 0 0 48 48;" xml:space="preserve">
<style type="text/css">
	.st0{fill:#FAFAFB;stroke:#ADADAD;stroke-width:0.5;stroke-miterlimit:10;}
	.st1{fill:#C4C4C4;}
	.st2{fill:#ADADAD;}
	.st3{fill:url(#SVGID_1_);}
	.st4{fill:#436DCD;}
	.st5{fill:#FFFFFF;}
	.st6{fill:url(#SVGID_2_);}
</style>
<polygon class="st0" points="30.4,2.3 8.9,2.3 8.9,44.2 40.8,44.2 40.8,12.8 "/>
<g>
	<polygon class="st1" points="30.7,12.5 30.7,2.9 40.2,12.6 	"/>
	<path class="st2" d="M30.9,3.5l8.7,8.9l-8.7-0.1L30.9,3.5 M30.4,2.3l0,10.5l10.4,0.1L30.4,2.3L30.4,2.3z"/>
</g>
<image style="overflow:visible;" width="82" height="89" xlink:href="351338B8.jpg"  transform="matrix(0.487 0 0 0.487 55.541 2.0492)">
</image>
<g>
	
		<radialGradient id="SVGID_1_" cx="37.0933" cy="18.793" r="12.1762" gradientTransform="matrix(1 0 0 -1 0 50)" gradientUnits="userSpaceOnUse">
		<stop  offset="0" style="stop-color:#BD8AF5"/>
		<stop  offset="0.137" style="stop-color:#B88BF5"/>
		<stop  offset="0.309" style="stop-color:#A88FF3"/>
		<stop  offset="0.499" style="stop-color:#8F96F2"/>
		<stop  offset="0.702" style="stop-color:#6B9EEF"/>
		<stop  offset="0.913" style="stop-color:#3EAAEC"/>
		<stop  offset="1" style="stop-color:#29AFEA"/>
	</radialGradient>
	<path class="st3" d="M32.6,15h-17c-0.6,0-1.1,0.5-1.1,1.1v17c0,0.6,0.5,1.1,1.1,1.1h17c0.6,0,1.1-0.5,1.1-1.1v-17
		C33.7,15.5,33.2,15,32.6,15z"/>
	<path class="st4" d="M28.4,24.1c-0.6-0.6-1.6-0.6-2.2,0l-5.2,5v5.1h11.7c0.6,0,1.1-0.5,1.1-1.1v-3.7L28.4,24.1z"/>
	<circle class="st5" cx="27.6" cy="19.5" r="1.9"/>
	
		<linearGradient id="SVGID_2_" gradientUnits="userSpaceOnUse" x1="24.0547" y1="28.5278" x2="24.0547" y2="15.6404" gradientTransform="matrix(1 0 0 -1 0 50)">
		<stop  offset="0" style="stop-color:#124787"/>
		<stop  offset="0.923" style="stop-color:#173B75"/>
		<stop  offset="1" style="stop-color:#173A73"/>
	</linearGradient>
	<path class="st6" d="M15.6,34.1h17c0.4,0,0.8-0.3,1-0.6L22,22c-0.6-0.6-1.6-0.6-2.2,0l-5.2,5v6.2C14.5,33.7,15,34.1,15.6,34.1z"/>
</g>
</svg>
