<?xml version="1.0" encoding="utf-8"?>
<!-- Generator: Adobe Illustrator 24.0.2, SVG Export Plug-In . SVG Version: 6.00 Build 0)  -->
<svg version="1.1" id="Capa_1" xmlns="http://www.w3.org/2000/svg" xmlns:xlink="http://www.w3.org/1999/xlink" x="0px" y="0px"
	 viewBox="0 0 48 48" style="enable-background:new 0 0 48 48;" xml:space="preserve">
<style type="text/css">
	.st0{fill:#4CAF50;}
	.st1{fill:#FFFFFF;}
	.st2{fill:#2E7D32;}
	.st3{opacity:9.000000e-02;}
	.st4{opacity:7.000000e-02;}
	.st5{opacity:5.000000e-02;}
</style>
<path class="st0" d="M41,10H25v28h16c0.6,0,1-0.4,1-1V11C42,10.4,41.6,10,41,10z"/>
<path class="st1" d="M32,15h7v3h-7V15z M32,25h7v3h-7V25z M32,30h7v3h-7V30z M32,20h7v3h-7V20z M25,15h5v3h-5V15z M25,25h5v3h-5V25z
	 M25,30h5v3h-5V30z M25,20h5v3h-5V20z"/>
<path class="st2" d="M27,42L6,38V10l21-4V42z"/>
<path class="st1" d="M19.1,31l-2.4-4.6c-0.1-0.2-0.2-0.5-0.3-0.9h0c0,0.2-0.2,0.5-0.3,1L13.7,31H9.9l4.5-7l-4.1-7h3.8l2,4.2
	c0.2,0.3,0.3,0.7,0.4,1.2h0c0.1-0.3,0.2-0.7,0.4-1.2l2.2-4.2h3.5l-4.2,6.9l4.3,7.1L19.1,31L19.1,31z"/>
<rect x="27" y="10" class="st3" width="0.5" height="28"/>
<rect x="27" y="10" class="st4" width="0.9" height="28"/>
<rect x="27" y="10" class="st5" width="1.3" height="28"/>
</svg>
