<?xml version="1.0" encoding="utf-8"?>
<!-- Generator: Adobe Illustrator 24.0.2, SVG Export Plug-In . SVG Version: 6.00 Build 0)  -->
<svg version="1.1" id="Capa_1" xmlns="http://www.w3.org/2000/svg" xmlns:xlink="http://www.w3.org/1999/xlink" x="0px" y="0px"
	 viewBox="0 0 128 128" style="enable-background:new 0 0 128 128;" xml:space="preserve">
<style type="text/css">
	.st0{fill:none;stroke:#BDBDC0;stroke-width:3;stroke-miterlimit:10;}
	.st1{display:none;fill:none;stroke:#212E3A;stroke-width:3;stroke-miterlimit:10;}
	.st2{fill:#2D5973;}
</style>
<g>
	<circle class="st0" cx="64.9" cy="64.5" r="51.3"/>
	<line class="st1" x1="64.9" y1="39.1" x2="64.9" y2="97.9"/>
</g>
<line class="st1" x1="64.9" y1="31.1" x2="64.9" y2="33.9"/>
<path class="st2" d="M73.4,53.9l-16.3,2l-0.6,2.7l3.2,0.6c2.1,0.5,2.5,1.2,2,3.3l-5.2,24.6c-1.4,6.4,0.8,9.4,5.7,9.4
	c3.9,0,8.4-1.8,10.4-4.2l0.6-3c-1.4,1.2-3.5,1.7-4.9,1.7c-2,0-2.7-1.4-2.2-3.8L73.4,53.9z M73.9,39.1c0,3.9-3.2,7.1-7.1,7.1
	s-7.1-3.2-7.1-7.1s3.2-7.1,7.1-7.1S73.9,35.2,73.9,39.1"/>
</svg>
