<?xml version="1.0" encoding="utf-8"?>
<!-- Generator: Adobe Illustrator 24.0.2, SVG Export Plug-In . SVG Version: 6.00 Build 0)  -->
<svg version="1.1" id="Capa_1" xmlns="http://www.w3.org/2000/svg" xmlns:xlink="http://www.w3.org/1999/xlink" x="0px" y="0px"
	 viewBox="0 0 48 48" style="enable-background:new 0 0 48 48;" xml:space="preserve">
<style type="text/css">
	.st0{fill:#FF7032;}
	.st1{fill:#FCEEEC;}
</style>
<image style="overflow:visible;" width="48" height="48" xlink:href="C:\Users\Usuario\Downloads\icons8-pdf-48.png"  transform="matrix(1 0 0 1 47.4672 -0.6311)">
</image>
<polygon class="st0" points="30.4,2.3 8.9,2.3 8.9,44.2 40.8,44.2 40.8,12.8 "/>
<polygon class="st1" points="29.9,3.8 39.5,13.5 30,13.3 "/>
<g>
	<path class="st1" d="M14.7,32.9V22.3h3.6c0.7,0,1.3,0.1,1.8,0.4c0.4,0.3,0.7,0.6,0.9,1.1c0.2,0.5,0.3,1.1,0.3,1.7
		c0,0.6-0.1,1.2-0.2,1.7c-0.2,0.5-0.4,0.8-0.8,1.1c-0.4,0.3-1,0.4-1.7,0.4h-1.1v4.2H14.7z M17.4,26.8h0.2c0.5,0,0.8-0.1,0.9-0.3
		c0.1-0.2,0.2-0.5,0.2-1c0-0.4-0.1-0.7-0.2-0.9c-0.1-0.2-0.4-0.3-0.8-0.3h-0.3V26.8z"/>
	<path class="st1" d="M22.2,32.9V22.3h3.7c1,0,1.7,0.2,2.2,0.6c0.5,0.4,0.7,1,0.7,1.9v5c0,1-0.2,1.8-0.7,2.3
		c-0.4,0.5-1.2,0.8-2.3,0.8H22.2z M24.9,31h0.5c0.5,0,0.7-0.2,0.7-0.6V25c0-0.4-0.1-0.6-0.2-0.7c-0.1-0.1-0.4-0.2-0.7-0.2h-0.3V31z"
		/>
	<path class="st1" d="M29.9,32.9V22.3h5.4v2.1h-2.7V26h2.5v2h-2.5v4.8H29.9z"/>
</g>
</svg>
