<?xml version="1.0" encoding="utf-8"?>
<!-- Generator: Adobe Illustrator 24.0.2, SVG Export Plug-In . SVG Version: 6.00 Build 0)  -->
<svg version="1.1" id="Capa_1" xmlns="http://www.w3.org/2000/svg" xmlns:xlink="http://www.w3.org/1999/xlink" x="0px" y="0px"
	 viewBox="0 0 48 48" style="enable-background:new 0 0 48 48;" xml:space="preserve">
<style type="text/css">
	.st0{fill:url(#SVGID_1_);}
	.st1{fill:url(#SVGID_2_);}
	.st2{fill:url(#SVGID_3_);}
	.st3{fill:url(#SVGID_4_);}
	.st4{opacity:5.000000e-02;enable-background:new    ;}
	.st5{opacity:7.000000e-02;enable-background:new    ;}
	.st6{opacity:9.000000e-02;enable-background:new    ;}
	.st7{fill:url(#SVGID_5_);}
	.st8{fill:#FFFFFF;}
</style>
<linearGradient id="SVGID_1_" gradientUnits="userSpaceOnUse" x1="28" y1="35.034" x2="28" y2="43.55" gradientTransform="matrix(1 0 0 -1 0 50)">
	<stop  offset="0" style="stop-color:#42A3F2"/>
	<stop  offset="1" style="stop-color:#42A4EB"/>
</linearGradient>
<path class="st0" d="M42,6H14c-1.1,0-2,0.9-2,2v7h32V8C44,6.9,43.1,6,42,6z"/>
<linearGradient id="SVGID_2_" gradientUnits="userSpaceOnUse" x1="28" y1="8" x2="28" y2="16.946" gradientTransform="matrix(1 0 0 -1 0 50)">
	<stop  offset="0" style="stop-color:#11408A"/>
	<stop  offset="1" style="stop-color:#103F8F"/>
</linearGradient>
<path class="st1" d="M12,33.1V40c0,1.1,0.9,2,2,2h28c1.1,0,2-0.9,2-2v-6.9H12z"/>
<linearGradient id="SVGID_3_" gradientUnits="userSpaceOnUse" x1="28" y1="65.46" x2="28" y2="65.521" gradientTransform="matrix(1 0 0 -1 0 50)">
	<stop  offset="0" style="stop-color:#3079D6"/>
	<stop  offset="1" style="stop-color:#297CD2"/>
</linearGradient>
<path class="st2" d="M12,15h32v9H12V15z"/>
<linearGradient id="SVGID_4_" gradientUnits="userSpaceOnUse" x1="12" y1="21.47" x2="44" y2="21.47" gradientTransform="matrix(1 0 0 -1 0 50)">
	<stop  offset="0" style="stop-color:#1D59B3"/>
	<stop  offset="1" style="stop-color:#195BBC"/>
</linearGradient>
<path class="st3" d="M12,24h32v9.1H12V24z"/>
<path class="st4" d="M22.3,13H12v24h10.3c2,0,3.7-1.6,3.7-3.7V16.7C26,14.6,24.4,13,22.3,13z"/>
<path class="st5" d="M22.2,36H12V13.3h10.2c1.7,0,3.1,1.4,3.1,3.1v16.4C25.3,34.6,23.9,36,22.2,36z"/>
<path class="st6" d="M22.1,35H12V13.7h10.1c1.4,0,2.6,1.1,2.6,2.6v16.2C24.7,33.9,23.5,35,22.1,35z"/>
<linearGradient id="SVGID_5_" gradientUnits="userSpaceOnUse" x1="4.7438" y1="35.2558" x2="23.4938" y2="16.5068" gradientTransform="matrix(1 0 0 -1 0 50)">
	<stop  offset="0" style="stop-color:#256AC2"/>
	<stop  offset="1" style="stop-color:#1247AD"/>
</linearGradient>
<path class="st7" d="M22,34H6c-1.1,0-2-0.9-2-2V16c0-1.1,0.9-2,2-2h16c1.1,0,2,0.9,2,2v16C24,33.1,23.1,34,22,34z"/>
<path class="st8" d="M18.4,19l-1.5,7.3L15.1,19H13l-1.8,7.5L9.6,19h-2L10,29h2.4l1.7-7.7l1.7,7.7H18l2.3-10H18.4z"/>
</svg>
