<?xml version="1.0" encoding="utf-8"?>
<!-- Generator: Adobe Illustrator 24.0.2, SVG Export Plug-In . SVG Version: 6.00 Build 0)  -->
<svg version="1.1" id="Capa_1" xmlns="http://www.w3.org/2000/svg" xmlns:xlink="http://www.w3.org/1999/xlink" x="0px" y="0px"
	 viewBox="0 0 48 48" style="enable-background:new 0 0 48 48;" xml:space="preserve">
<style type="text/css">
	.st0{fill:#FAFAFB;stroke:#ADADAD;stroke-width:0.5;stroke-miterlimit:10;}
	.st1{fill:#C4C4C4;}
	.st2{fill:#ADADAD;}
	.st3{fill:url(#SVGID_1_);}
	.st4{fill:url(#SVGID_2_);}
	.st5{opacity:0.15;fill:url(#SVGID_3_);enable-background:new    ;}
	.st6{fill:url(#SVGID_4_);}
</style>
<polygon class="st0" points="30.4,2.3 8.9,2.3 8.9,44.2 40.8,44.2 40.8,12.8 "/>
<g>
	<polygon class="st1" points="30.7,12.5 30.7,2.9 40.2,12.6 	"/>
	<path class="st2" d="M30.9,3.5l8.7,8.9l-8.7-0.1L30.9,3.5 M30.4,2.3l0,10.5l10.4,0.1L30.4,2.3L30.4,2.3z"/>
</g>
<image style="overflow:visible;" width="82" height="89" xlink:href="FB53D521.jpg"  transform="matrix(0.487 0 0 0.487 55.541 2.0492)">
</image>
<g>
	
		<radialGradient id="SVGID_1_" cx="24.6683" cy="34.6659" r="21.0604" gradientTransform="matrix(1 0 0 -1 0 50)" gradientUnits="userSpaceOnUse">
		<stop  offset="0" style="stop-color:#4B4B4B"/>
		<stop  offset="0.531" style="stop-color:#393939"/>
		<stop  offset="1" style="stop-color:#252525"/>
	</radialGradient>
	<path class="st3" d="M24.7,15.1c-5.2,0-9.5,4.2-9.5,9.5s4.2,9.5,9.5,9.5s9.5-4.2,9.5-9.5S29.9,15.1,24.7,15.1z"/>
	
		<radialGradient id="SVGID_2_" cx="30.597" cy="15.6578" r="21.0604" gradientTransform="matrix(1 0 0 -1 0 50)" gradientUnits="userSpaceOnUse">
		<stop  offset="0" style="stop-color:#9E6FD9"/>
		<stop  offset="0.173" style="stop-color:#AA73C7"/>
		<stop  offset="0.522" style="stop-color:#CA7F97"/>
		<stop  offset="1" style="stop-color:#FC914D"/>
	</radialGradient>
	<path class="st4" d="M32,18.5l-3.1,2.3l0.9,1.2l1.9-1.4c0.7,1.2,1,2.5,1,3.9c0,4.4-3.6,8-8,8s-8-3.6-8-8s3.6-8,8-8
		c1.6,0,3,0.5,4.2,1.2l1.3-0.9c-1.6-1.1-3.5-1.8-5.5-1.8c-5.2,0-9.5,4.2-9.5,9.5s4.2,9.5,9.5,9.5s9.5-4.2,9.5-9.5
		C34.2,22.3,33.4,20.2,32,18.5z"/>
	
		<radialGradient id="SVGID_3_" cx="24.7295" cy="25.4344" r="3.9793" gradientTransform="matrix(1 0 0 -1 0 50)" gradientUnits="userSpaceOnUse">
		<stop  offset="0.847" style="stop-color:#000000"/>
		<stop  offset="1" style="stop-color:#000000;stop-opacity:0"/>
	</radialGradient>
	<circle class="st5" cx="24.7" cy="24.6" r="4"/>
	
		<radialGradient id="SVGID_4_" cx="24.7186" cy="27.6454" r="6.8568" gradientTransform="matrix(1 0 0 -1 0 50)" gradientUnits="userSpaceOnUse">
		<stop  offset="0" style="stop-color:#FAFAFB"/>
		<stop  offset="1" style="stop-color:#C8CDD1"/>
	</radialGradient>
	<path class="st6" d="M24.7,21.1c-1.9,0-3.5,1.6-3.5,3.5s1.6,3.5,3.5,3.5s3.5-1.6,3.5-3.5S26.7,21.1,24.7,21.1z M24.7,25.8
		c-0.7,0-1.2-0.6-1.2-1.2c0-0.7,0.6-1.2,1.2-1.2c0.7,0,1.2,0.6,1.2,1.2C26,25.3,25.4,25.8,24.7,25.8z"/>
</g>
</svg>
