<?xml version="1.0" encoding="utf-8"?>
<!-- Generator: Adobe Illustrator 24.0.2, SVG Export Plug-In . SVG Version: 6.00 Build 0)  -->
<svg version="1.1" id="Capa_1" xmlns="http://www.w3.org/2000/svg" xmlns:xlink="http://www.w3.org/1999/xlink" x="0px" y="0px"
	 viewBox="0 0 48 48" style="enable-background:new 0 0 48 48;" xml:space="preserve">
<style type="text/css">
	.st0{fill:#FAFAFB;stroke:#ADADAD;stroke-width:0.5;stroke-miterlimit:10;}
	.st1{fill:#F1F1F2;}
	.st2{fill:#ADADAD;}
	.st3{fill:#EE0013;}
	.st4{fill:#FFFFFF;}
	.st5{fill:none;stroke:#ADADAD;stroke-width:0.5;stroke-miterlimit:10;}
</style>
<polygon class="st0" points="30.4,2.3 8.9,2.3 8.9,44.2 40.8,44.2 40.8,12.8 "/>
<g>
	<polygon class="st1" points="30.7,12.5 30.7,2.9 40.2,12.6 	"/>
	<path class="st2" d="M30.9,3.5l8.7,8.9l-8.7-0.1L30.9,3.5 M30.4,2.3l0,10.5l10.4,0.1L30.4,2.3L30.4,2.3z"/>
</g>
<rect x="7.1" y="22.5" class="st3" width="34.8" height="15"/>
<g>
	<path class="st4" d="M14.7,25.5c0.6-0.1,1.4-0.2,2.5-0.2c1.1,0,1.9,0.2,2.5,0.6c0.5,0.4,0.9,1.1,0.9,1.9c0,0.8-0.3,1.5-0.7,1.9
		c-0.6,0.6-1.5,0.9-2.6,0.9c-0.2,0-0.5,0-0.6,0v2.9h-1.8V25.5z M16.5,29.2c0.2,0,0.3,0,0.6,0c1,0,1.6-0.5,1.6-1.3
		c0-0.7-0.5-1.2-1.4-1.2c-0.4,0-0.6,0-0.7,0.1V29.2z"/>
	<path class="st4" d="M22.1,25.6c0.7-0.1,1.5-0.2,2.5-0.2c1.5,0,2.6,0.3,3.3,0.9c0.8,0.6,1.4,1.6,1.4,3c0,1.5-0.6,2.6-1.3,3.3
		c-0.9,0.7-2.2,1-3.7,1c-0.9,0-1.6-0.1-2.1-0.1V25.6z M23.9,32.1c0.2,0,0.4,0,0.6,0c1.7,0,2.8-0.9,2.8-2.8c0-1.7-1-2.6-2.6-2.6
		c-0.4,0-0.7,0-0.8,0.1V32.1z"/>
	<path class="st4" d="M30.9,25.4h4.9v1.5h-3.1v1.8h2.9v1.5h-2.9v3.3h-1.8V25.4z"/>
</g>
<line class="st5" x1="10.7" y1="6.8" x2="28.8" y2="6.8"/>
<line class="st5" x1="10.7" y1="10.3" x2="28.8" y2="10.3"/>
<line class="st5" x1="10.7" y1="14" x2="37.7" y2="14.1"/>
<line class="st5" x1="10.7" y1="17.7" x2="37.7" y2="17.8"/>
<line class="st5" x1="10.7" y1="21.4" x2="37.7" y2="21.5"/>
<line class="st5" x1="10.7" y1="39.7" x2="37.7" y2="39.8"/>
</svg>
