<?xml version="1.0" encoding="utf-8"?>
<!-- Generator: Adobe Illustrator 24.0.2, SVG Export Plug-In . SVG Version: 6.00 Build 0)  -->
<svg version="1.1" id="Capa_1" xmlns="http://www.w3.org/2000/svg" xmlns:xlink="http://www.w3.org/1999/xlink" x="0px" y="0px"
	 viewBox="0 0 128 128" style="enable-background:new 0 0 128 128;" xml:space="preserve">
<style type="text/css">
	.st0{fill:#0891B2;}
	.st1{fill-rule:evenodd;clip-rule:evenodd;fill:#0891B2;}
</style>
<path class="st0" d="M103.5,64c0,21.8-17.7,39.5-39.5,39.5S24.5,85.8,24.5,64S42.2,24.5,64,24.5S103.5,42.2,103.5,64"/>
<path class="st1" d="M64,6.7c2.2,0,4,1.8,4,4V16c0,2.2-1.8,4-4,4s-4-1.8-4-4v-5.3C60,8.5,61.8,6.7,64,6.7 M23.5,23.5
	c1.6-1.6,4.1-1.6,5.7,0l2.1,2.1c1.5,1.6,1.5,4.1-0.1,5.7c-1.5,1.5-4,1.5-5.6,0l-2.1-2.1C21.9,27.6,21.9,25,23.5,23.5 M104.5,23.5
	c1.6,1.6,1.6,4.1,0,5.7l-2.1,2.1c-1.6,1.5-4.1,1.4-5.7-0.2c-1.4-1.5-1.4-3.9,0-5.5l2.1-2.1C100.4,21.9,103,21.9,104.5,23.5 M6.7,64
	c0-2.2,1.8-4,4-4H16c2.2,0,4,1.8,4,4s-1.8,4-4,4h-5.3C8.5,68,6.7,66.2,6.7,64 M108,64c0-2.2,1.8-4,4-4h5.3c2.2,0,4,1.8,4,4
	s-1.8,4-4,4H112C109.8,68,108,66.2,108,64 M96.8,96.8c1.6-1.6,4.1-1.6,5.7,0l2.1,2.1c1.6,1.5,1.7,4,0.2,5.7s-4,1.7-5.7,0.2
	c-0.1-0.1-0.1-0.1-0.2-0.2l-2.1-2.1C95.2,100.9,95.2,98.4,96.8,96.8 M31.2,96.8c1.6,1.6,1.6,4.1,0,5.7l-2.1,2.1
	c-1.5,1.6-4,1.7-5.7,0.2c-1.6-1.5-1.7-4-0.2-5.7c0.1-0.1,0.1-0.1,0.2-0.2l2.1-2.1C27.1,95.2,29.6,95.2,31.2,96.8
	C31.2,96.8,31.2,96.8,31.2,96.8 M64,108c2.2,0,4,1.8,4,4v5.3c0,2.2-1.8,4-4,4s-4-1.8-4-4V112C60,109.8,61.8,108,64,108"/>
</svg>
