<?xml version="1.0" encoding="utf-8"?>
<!-- Generator: Adobe Illustrator 24.0.2, SVG Export Plug-In . SVG Version: 6.00 Build 0)  -->
<svg version="1.1" id="Capa_1" xmlns="http://www.w3.org/2000/svg" xmlns:xlink="http://www.w3.org/1999/xlink" x="0px" y="0px"
	 viewBox="0 0 31.9 32" style="enable-background:new 0 0 31.9 32;" xml:space="preserve">
<style type="text/css">
	.st0{fill:#00A782;}
	.st1{fill:#FEE23E;}
</style>
<path class="st0" d="M0.9,0.6c-0.3,0-0.6,0.2-0.6,0.6s0.2,0.6,0.6,0.6c3.2,0,5.9,2.4,6.2,5.6c-3.2,0.3-5.6,2.9-5.6,6.1
	c0,3.4,2.7,3.9,6.1,3.9c2,0,3.8-0.2,4.9-1.1c0,0.5,0.1,0.9,0.3,1.4l-4.1,2.9c-1.1-0.9-2.5-1.3-4-1.3c-1.6,0-3.2,0.5-4.3,1.7
	c-0.2,0.2-0.2,0.6,0,0.8s0.6,0.2,0.8,0c0,0,0,0,0,0c0.9-0.9,2.2-1.3,3.5-1.3c1.4,0,2.7,0.5,3.5,1.3c0.2,0.2,0.5,0.2,0.7,0.1l4.4-3.1
	c0.1,0.1,0.1,0.1,0.2,0.2L6,30.9c-0.2,0.3-0.1,0.6,0.2,0.8c0.3,0.2,0.6,0.1,0.8-0.2l0,0l7.6-12.2c0.1,0,0.2,0.1,0.2,0.1v11.8
	c0,0.3,0.2,0.6,0.6,0.6s0.6-0.2,0.6-0.6V19.6c1.1,0,2-0.5,2.7-1.4c-0.4,1.4-0.5,3.2-0.5,5.2c0,4.6,0.3,8.3,4.9,8.3s8.3-3.7,8.3-8.3
	S27.6,15,23,15c-2,0-3.1,0.7-3.8,1.8c0.3-1.8-0.9-3.6-2.7-3.9c-1-0.2-2,0.1-2.8,0.8c0.1-3.2-2.3-6-5.5-6.3C7.9,3.6,4.7,0.6,0.9,0.6
	 M5.3,10.1c0.5,0,0.8,0.4,0.8,0.8v1c0,0.5-0.4,0.8-0.8,0.8s-0.8-0.4-0.8-0.8v-1C4.5,10.5,4.9,10.1,5.3,10.1"/>
<polygon class="st1" points="23,1.2 17.3,11 28.6,11 "/>
</svg>
